<svg width="20" height="20" viewBox="0 0 20 20" fill="none" xmlns="http://www.w3.org/2000/svg">
<path d="M15.8333 9.16668H10.8333V4.16668C10.8333 3.94566 10.7455 3.7337 10.5892 3.57742C10.4329 3.42114 10.2209 3.33334 9.99992 3.33334C9.77891 3.33334 9.56694 3.42114 9.41066 3.57742C9.25438 3.7337 9.16659 3.94566 9.16659 4.16668V9.16668H4.16659C3.94557 9.16668 3.73361 9.25447 3.57733 9.41076C3.42105 9.56704 3.33325 9.779 3.33325 10C3.33325 10.221 3.42105 10.433 3.57733 10.5893C3.73361 10.7455 3.94557 10.8333 4.16659 10.8333H9.16659V15.8333C9.16659 16.0544 9.25438 16.2663 9.41066 16.4226C9.56694 16.5789 9.77891 16.6667 9.99992 16.6667C10.2209 16.6667 10.4329 16.5789 10.5892 16.4226C10.7455 16.2663 10.8333 16.0544 10.8333 15.8333V10.8333H15.8333C16.0543 10.8333 16.2662 10.7455 16.4225 10.5893C16.5788 10.433 16.6666 10.221 16.6666 10C16.6666 9.779 16.5788 9.56704 16.4225 9.41076C16.2662 9.25447 16.0543 9.16668 15.8333 9.16668Z" fill="#1BA521"/>
</svg>
