<svg width="28" height="28" viewBox="0 0 28 28" fill="none" xmlns="http://www.w3.org/2000/svg">
<path d="M12.046 17.2239C9.1309 16.3782 7.00033 13.6883 7.00033 10.5003V1.16699H21.0003V11.667M7.00033 3.50033H1.16699V8.16699C1.16699 11.0942 3.25649 12.8337 5.83366 12.8337H7.00033M23.3728 12.6994C25.3656 12.2397 26.8337 10.6206 26.8337 8.16699V3.50033H21.0003M11.667 22.167H5.83366V26.8337H19.2503M23.3337 16.3337L18.0837 21.5837L15.167 18.667M11.9069 17.9951C10.3808 18.7624 9.33366 20.3424 9.33366 22.167M19.2503 11.667C15.0622 11.667 11.667 15.0622 11.667 19.2503C11.667 23.4385 15.0622 26.8337 19.2503 26.8337C23.4385 26.8337 26.8337 23.4385 26.8337 19.2503C26.8337 15.0622 23.4385 11.667 19.2503 11.667Z" stroke="#2D2D2D" stroke-width="2.5"/>
</svg>
