<svg width="29" height="26" viewBox="0 0 29 26" fill="none" xmlns="http://www.w3.org/2000/svg">
<path d="M18.4167 0.749996H7.16669C6.12919 0.749996 5.24169 1.37499 4.86669 2.27499L1.09169 11.0875C0.979188 11.375 0.916689 11.675 0.916689 12V14.5C0.916689 15.875 2.04169 17 3.41669 17H11.3042L10.1167 22.7125L10.0792 23.1125C10.0792 23.625 10.2917 24.1 10.6292 24.4375L11.9542 25.75L20.1917 17.5125C20.6417 17.0625 20.9167 16.4375 20.9167 15.75V3.25C20.9167 1.875 19.7917 0.749996 18.4167 0.749996ZM28.4167 15.75H23.4167V0.749996H28.4167V15.75Z" fill="black"/>
</svg>
