<svg width="22" height="25" viewBox="0 0 22 25" fill="none" xmlns="http://www.w3.org/2000/svg">
<path d="M18 8.33366H20.3333C20.6428 8.33366 20.9395 8.45658 21.1583 8.67537C21.3771 8.89416 21.5 9.19091 21.5 9.50033V23.5003C21.5 23.8097 21.3771 24.1065 21.1583 24.3253C20.9395 24.5441 20.6428 24.667 20.3333 24.667H1.66667C1.35725 24.667 1.0605 24.5441 0.841709 24.3253C0.622916 24.1065 0.5 23.8097 0.5 23.5003V9.50033C0.5 9.19091 0.622916 8.89416 0.841709 8.67537C1.0605 8.45658 1.35725 8.33366 1.66667 8.33366H4V7.16699C4 5.31048 4.7375 3.53 6.05025 2.21724C7.36301 0.90449 9.14348 0.166992 11 0.166992C12.8565 0.166992 14.637 0.90449 15.9497 2.21724C17.2625 3.53 18 5.31048 18 7.16699V8.33366ZM2.83333 10.667V22.3337H19.1667V10.667H2.83333ZM9.83333 15.3337H12.1667V17.667H9.83333V15.3337ZM5.16667 15.3337H7.5V17.667H5.16667V15.3337ZM14.5 15.3337H16.8333V17.667H14.5V15.3337ZM15.6667 8.33366V7.16699C15.6667 5.92932 15.175 4.74233 14.2998 3.86716C13.4247 2.99199 12.2377 2.50033 11 2.50033C9.76232 2.50033 8.57534 2.99199 7.70017 3.86716C6.825 4.74233 6.33333 5.92932 6.33333 7.16699V8.33366H15.6667Z" fill="#2D2D2D"/>
</svg>
