<svg width="21" height="20" viewBox="0 0 21 20" fill="none" xmlns="http://www.w3.org/2000/svg">
<path fill-rule="evenodd" clip-rule="evenodd" d="M13 12C15.7614 12 18 14.2386 18 17V19C18 19.5523 17.5523 20 17 20C16.4477 20 16 19.5523 16 19V17C16 15.3431 14.6569 14 13 14H5C3.34315 14 2 15.3431 2 17V19C2 19.5523 1.55228 20 1 20C0.44772 20 0 19.5523 0 19V17C0 14.2386 2.23858 12 5 12H13ZM18.4141 7.08128C18.8047 6.69076 19.4378 6.69076 19.8284 7.08128C20.1889 7.44177 20.2166 8.00902 19.9116 8.4013L19.8284 8.4955L16.9999 11.3239C16.6394 11.6844 16.0722 11.7121 15.6799 11.4071L15.5857 11.3239L14.1715 9.9097C13.781 9.5192 13.781 8.886 14.1715 8.4955C14.532 8.13504 15.0992 8.10731 15.4915 8.41232L15.5857 8.4955L16.2928 9.2026L18.4141 7.08128ZM9 0C11.7614 0 14 2.23858 14 5C14 7.76142 11.7614 10 9 10C6.23858 10 4 7.76142 4 5C4 2.23858 6.23858 0 9 0ZM9 2C7.3431 2 6 3.34315 6 5C6 6.65685 7.3431 8 9 8C10.6569 8 12 6.65685 12 5C12 3.34315 10.6569 2 9 2Z" fill="#2D2D2D"/>
</svg>
