<svg width="28" height="28" viewBox="0 0 28 28" fill="none" xmlns="http://www.w3.org/2000/svg">
<path fill-rule="evenodd" clip-rule="evenodd" d="M18.6667 16.333C21.8883 16.333 24.5 18.9447 24.5 22.1663V24.4997C24.5 25.144 23.9777 25.6663 23.3333 25.6663C22.689 25.6663 22.1667 25.144 22.1667 24.4997V22.1663C22.1667 20.2333 20.5997 18.6663 18.6667 18.6663H9.33333C7.40034 18.6663 5.83333 20.2333 5.83333 22.1663V24.4997C5.83333 25.144 5.31099 25.6663 4.66667 25.6663C4.02234 25.6663 3.5 25.144 3.5 24.4997V22.1663C3.5 18.9447 6.11168 16.333 9.33333 16.333H18.6667ZM24.9831 10.5945C25.4388 10.1389 26.1774 10.1389 26.6331 10.5945C27.0537 11.0151 27.086 11.6769 26.7302 12.1345L26.6331 12.2444L23.3332 15.5442C22.9127 15.9648 22.2509 15.9971 21.7932 15.6413L21.6833 15.5442L20.0334 13.8943C19.5778 13.4387 19.5778 12.7 20.0334 12.2444C20.454 11.8239 21.1158 11.7915 21.5734 12.1474L21.6833 12.2444L22.5083 13.0694L24.9831 10.5945ZM14 2.33301C17.2216 2.33301 19.8333 4.94468 19.8333 8.16634C19.8333 11.388 17.2216 13.9997 14 13.9997C10.7783 13.9997 8.16667 11.388 8.16667 8.16634C8.16667 4.94468 10.7783 2.33301 14 2.33301ZM14 4.66634C12.0669 4.66634 10.5 6.23335 10.5 8.16634C10.5 10.0993 12.0669 11.6663 14 11.6663C15.933 11.6663 17.5 10.0993 17.5 8.16634C17.5 6.23335 15.933 4.66634 14 4.66634Z" fill="#2D2D2D"/>
</svg>
