<svg width="18" height="22" viewBox="0 0 18 22" fill="none" xmlns="http://www.w3.org/2000/svg">
<path d="M2.10554 21.57C1.79612 21.57 1.49937 21.4471 1.28058 21.2283C1.06179 21.0095 0.938874 20.7128 0.938874 20.4033L0.763874 3.3C0.749825 2.95274 0.804571 2.60612 0.924961 2.28009C1.04535 1.95406 1.22901 1.65504 1.46537 1.40025C1.70174 1.14545 1.98615 0.939896 2.30224 0.795409C2.61833 0.650922 2.95987 0.570352 3.30721 0.558333L14.4955 0.5C14.8433 0.506075 15.1865 0.580608 15.5055 0.719342C15.8245 0.858077 16.1131 1.05829 16.3547 1.30856C16.5962 1.55882 16.7862 1.85423 16.9136 2.17791C17.041 2.50159 17.1034 2.8472 17.0972 3.195L17.2605 20.2983C17.2625 20.5028 17.2108 20.7041 17.1105 20.8823C17.0101 21.0604 16.8647 21.2091 16.6889 21.3133C16.5115 21.4157 16.3103 21.4696 16.1055 21.4696C15.9007 21.4696 15.6996 21.4157 15.5222 21.3133L8.87221 17.6267L2.70054 21.395C2.51778 21.4971 2.31446 21.5569 2.10554 21.57ZM8.82554 15.095C9.02826 15.0954 9.22807 15.1433 9.40887 15.235L14.9039 18.28L14.7639 3.17167C14.7639 2.93833 14.6122 2.775 14.5189 2.78667L3.31887 2.89167C3.22554 2.89167 3.09721 3.04333 3.09721 3.27667L3.23721 18.3267L8.23054 15.2583C8.41189 15.1545 8.61659 15.0983 8.82554 15.095Z" fill="#2D2D2D"/>
</svg>
