<svg width="12" height="16" viewBox="0 0 12 16" fill="none" xmlns="http://www.w3.org/2000/svg">
<path d="M1.00008 15.5C0.856919 15.4996 0.716289 15.4623 0.591743 15.3917C0.463021 15.3193 0.355836 15.2141 0.28116 15.0867C0.206484 14.9593 0.166997 14.8143 0.166743 14.6667V2.44167C0.155478 1.94193 0.341599 1.45789 0.684771 1.09444C1.02794 0.730986 1.50052 0.517412 2.00008 0.5H10.0001C10.4996 0.517412 10.9722 0.730986 11.3154 1.09444C11.6586 1.45789 11.8447 1.94193 11.8334 2.44167V14.6667C11.8325 14.8121 11.7936 14.9548 11.7205 15.0805C11.6474 15.2062 11.5427 15.3106 11.4167 15.3833C11.2901 15.4565 11.1464 15.495 11.0001 15.495C10.8538 15.495 10.7101 15.4565 10.5834 15.3833L5.85841 12.7083L1.41674 15.375C1.29137 15.4528 1.14758 15.496 1.00008 15.5Z" fill="#231F20"/>
</svg>
