<svg width="12" height="16" viewBox="0 0 12 16" fill="none" xmlns="http://www.w3.org/2000/svg">
<path d="M1.07511 15.55C0.854093 15.55 0.642132 15.4622 0.485851 15.3059C0.329571 15.1496 0.241774 14.9377 0.241774 14.7167L0.116774 2.5C0.106739 2.25195 0.145843 2.00437 0.231836 1.77149C0.317828 1.53861 0.449013 1.32503 0.617846 1.14303C0.786678 0.961036 0.989826 0.814212 1.21561 0.711006C1.44138 0.607801 1.68534 0.550251 1.93344 0.541667L9.92511 0.5C10.1735 0.504339 10.4187 0.557577 10.6465 0.656673C10.8744 0.755769 11.0805 0.898781 11.253 1.07754C11.4256 1.2563 11.5613 1.46731 11.6523 1.69851C11.7433 1.92971 11.7879 2.17657 11.7834 2.425L11.9001 14.6417C11.9015 14.7877 11.8646 14.9315 11.7929 15.0588C11.7212 15.186 11.6174 15.2922 11.4918 15.3667C11.3651 15.4398 11.2214 15.4783 11.0751 15.4783C10.9288 15.4783 10.7851 15.4398 10.6584 15.3667L5.90844 12.7333L1.50011 15.425C1.36957 15.4979 1.22434 15.5406 1.07511 15.55ZM5.87511 10.925C6.01991 10.9253 6.16263 10.9595 6.29177 11.025L10.2168 13.2L10.1168 2.40833C10.1168 2.24167 10.0084 2.125 9.94177 2.13333L1.94177 2.20833C1.87511 2.20833 1.78344 2.31667 1.78344 2.48333L1.88344 13.2333L5.45011 11.0417C5.57964 10.9675 5.72586 10.9274 5.87511 10.925Z" fill="#23231F"/>
</svg>
