<svg width="29" height="26" viewBox="0 0 29 26" fill="none" xmlns="http://www.w3.org/2000/svg">
<path d="M10.85 25.25L22.1 25.25C23.1375 25.25 24.025 24.625 24.4 23.725L28.175 14.9125C28.2875 14.625 28.35 14.325 28.35 14V11.5C28.35 10.125 27.225 9 25.85 9L17.9625 9L19.15 3.2875L19.1875 2.8875C19.1875 2.375 18.975 1.9 18.6375 1.5625L17.3125 0.25L9.07504 8.4875C8.62504 8.9375 8.35004 9.5625 8.35004 10.25L8.35004 22.75C8.35004 24.125 9.47504 25.25 10.85 25.25ZM10.85 10.25L16.275 4.825L14.6 11.5L25.85 11.5V14L22.1 22.75L10.85 22.75V10.25ZM0.850037 10.25H5.85004L5.85004 25.25H0.850037L0.850037 10.25Z" fill="black"/>
</svg>
