<svg width="24" height="28" viewBox="0 0 24 28" fill="none" xmlns="http://www.w3.org/2000/svg">
<path d="M19 9.33301C19 7.47649 18.2625 5.69601 16.9497 4.38326C15.637 3.07051 13.8565 2.33301 12 2.33301C10.1435 2.33301 8.36301 3.07051 7.05025 4.38326C5.7375 5.69601 5 7.47649 5 9.33301C5 17.4997 1.5 19.833 1.5 19.833H22.5C22.5 19.833 19 17.4997 19 9.33301Z" stroke="#2D2D2D" stroke-width="3" stroke-linecap="round" stroke-linejoin="round"/>
<path d="M14.0183 24.5C13.8132 24.8536 13.5188 25.1471 13.1646 25.3511C12.8104 25.5551 12.4088 25.6625 12 25.6625C11.5912 25.6625 11.1896 25.5551 10.8354 25.3511C10.4812 25.1471 10.1868 24.8536 9.98166 24.5" stroke="#2D2D2D" stroke-width="3" stroke-linecap="round" stroke-linejoin="round"/>
</svg>
