<svg width="16" height="20" viewBox="0 0 16 20" fill="none" xmlns="http://www.w3.org/2000/svg">
<path d="M14.75 8.5C14.75 13.75 8 18.25 8 18.25C8 18.25 1.25 13.75 1.25 8.5C1.25 6.70979 1.96116 4.9929 3.22703 3.72703C4.4929 2.46116 6.20979 1.75 8 1.75C9.79021 1.75 11.5071 2.46116 12.773 3.72703C14.0388 4.9929 14.75 6.70979 14.75 8.5Z" stroke="#767676" stroke-width="2" stroke-linecap="round" stroke-linejoin="round"/>
<path d="M8 10.75C9.24264 10.75 10.25 9.74264 10.25 8.5C10.25 7.25736 9.24264 6.25 8 6.25C6.75736 6.25 5.75 7.25736 5.75 8.5C5.75 9.74264 6.75736 10.75 8 10.75Z" stroke="#767676" stroke-width="2" stroke-linecap="round" stroke-linejoin="round"/>
</svg>
