<svg width="26" height="28" viewBox="0 0 26 28" fill="none" xmlns="http://www.w3.org/2000/svg">
<path d="M22.8004 8.4V7H20.0004V2.8H3.20039V22.4H10.2004V28H14.7504H14.4004C13.6578 28 12.9456 27.705 12.4205 27.1799C11.8954 26.6548 11.6004 25.9426 11.6004 25.2V11.2C11.6004 10.4574 11.8954 9.7452 12.4205 9.2201C12.9456 8.695 13.6578 8.4 14.4004 8.4H22.8004ZM14.7504 28H3.20039C2.45778 28 1.74559 27.705 1.22049 27.1799C0.69539 26.6548 0.400391 25.9426 0.400391 25.2V2.8C0.400391 1.26 1.66039 0 3.20039 0H20.0004C20.743 0 21.4552 0.294999 21.9803 0.820101C22.5054 1.3452 22.8004 2.05739 22.8004 2.8V8.4C23.543 8.4 24.2552 8.695 24.7803 9.2201C25.3054 9.7452 25.6004 10.4574 25.6004 11.2V25.2C25.6004 25.9426 25.3054 26.6548 24.7803 27.1799C24.2552 27.705 23.543 28 22.8004 28H14.7504ZM14.4004 11.2V22.4H22.8004V11.2H14.4004ZM18.6004 26.6C18.9717 26.6 19.3278 26.4525 19.5903 26.19C19.8529 25.9274 20.0004 25.5713 20.0004 25.2C20.0004 24.8287 19.8529 24.4726 19.5903 24.21C19.3278 23.9475 18.9717 23.8 18.6004 23.8C18.2291 23.8 17.873 23.9475 17.6104 24.21C17.3479 24.4726 17.2004 24.8287 17.2004 25.2C17.2004 25.5713 17.3479 25.9274 17.6104 26.19C17.873 26.4525 18.2291 26.6 18.6004 26.6Z" fill="#2D2D2D"/>
</svg>
