<svg width="22" height="24" viewBox="0 0 22 24" fill="none" xmlns="http://www.w3.org/2000/svg">
<path d="M19.4 7.2V6H17V2.4H2.6V19.2H8.6V24H12.5H12.2C11.5635 24 10.953 23.7471 10.5029 23.2971C10.0529 22.847 9.8 22.2365 9.8 21.6V9.6C9.8 8.96348 10.0529 8.35303 10.5029 7.90294C10.953 7.45286 11.5635 7.2 12.2 7.2H19.4ZM12.5 24H2.6C1.96348 24 1.35303 23.7471 0.902941 23.2971C0.452853 22.847 0.199997 22.2365 0.199997 21.6V2.4C0.199997 1.08 1.28 0 2.6 0H17C17.6365 0 18.247 0.252856 18.6971 0.702944C19.1471 1.15303 19.4 1.76348 19.4 2.4V7.2C20.0365 7.2 20.647 7.45286 21.0971 7.90294C21.5471 8.35303 21.8 8.96348 21.8 9.6V21.6C21.8 22.2365 21.5471 22.847 21.0971 23.2971C20.647 23.7471 20.0365 24 19.4 24H12.5ZM12.2 9.6V19.2H19.4V9.6H12.2ZM15.8 22.8C16.1183 22.8 16.4235 22.6736 16.6485 22.4485C16.8736 22.2235 17 21.9183 17 21.6C17 21.2817 16.8736 20.9765 16.6485 20.7515C16.4235 20.5264 16.1183 20.4 15.8 20.4C15.4817 20.4 15.1765 20.5264 14.9515 20.7515C14.7264 20.9765 14.6 21.2817 14.6 21.6C14.6 21.9183 14.7264 22.2235 14.9515 22.4485C15.1765 22.6736 15.4817 22.8 15.8 22.8Z" fill="#2D2D2D"/>
</svg>
