<svg width="24" height="24" viewBox="0 0 24 24" fill="none" xmlns="http://www.w3.org/2000/svg">
<path d="M13.128 24H10.86C10.3253 24 9.81255 23.7876 9.43447 23.4095C9.0564 23.0315 8.844 22.5187 8.844 21.984V20.676C8.8375 20.5989 8.80923 20.5253 8.76249 20.4637C8.71575 20.4021 8.65246 20.355 8.58 20.328C8.50657 20.281 8.4212 20.256 8.334 20.256C8.2468 20.256 8.16142 20.281 8.088 20.328L7.2 21.288C7.01373 21.4756 6.79219 21.6244 6.54814 21.726C6.30409 21.8276 6.04235 21.8799 5.778 21.8799C5.51365 21.8799 5.25191 21.8276 5.00786 21.726C4.76381 21.6244 4.54227 21.4756 4.356 21.288L2.712 19.68C2.5217 19.4941 2.37057 19.272 2.26752 19.0267C2.16447 18.7814 2.11159 18.518 2.112 18.252C2.11277 17.7078 2.32841 17.186 2.712 16.8L3.6 15.912C3.64287 15.8459 3.66568 15.7688 3.66568 15.69C3.66568 15.6112 3.64287 15.5341 3.6 15.468C3.528 15.288 3.408 15.156 3.24 15.156H2.016C1.48022 15.1528 0.967471 14.9378 0.589739 14.5578C0.212006 14.1778 -9.37946e-06 13.6638 3.11213e-10 13.128V10.86C3.11213e-10 10.3253 0.212399 9.81255 0.590473 9.43447C0.968546 9.0564 1.48132 8.844 2.016 8.844H3.324C3.40106 8.8375 3.47469 8.80923 3.5363 8.76249C3.59792 8.71575 3.64498 8.65246 3.672 8.58C3.71904 8.50657 3.74405 8.4212 3.74405 8.334C3.74405 8.2468 3.71904 8.16142 3.672 8.088L2.712 7.2C2.52442 7.01373 2.37555 6.79219 2.27396 6.54814C2.17237 6.30409 2.12007 6.04235 2.12007 5.778C2.12007 5.51365 2.17237 5.25191 2.27396 5.00786C2.37555 4.76381 2.52442 4.54227 2.712 4.356L4.32 2.712C4.50408 2.5226 4.72419 2.37195 4.96737 2.26891C5.21055 2.16586 5.47189 2.11252 5.736 2.112C6.00749 2.11081 6.27656 2.16319 6.52777 2.26615C6.77899 2.36911 7.00743 2.52062 7.2 2.712L8.088 3.6C8.1541 3.64287 8.23121 3.66568 8.31 3.66568C8.38879 3.66568 8.46589 3.64287 8.532 3.6C8.712 3.528 8.844 3.408 8.844 3.24V2.016C8.84717 1.48022 9.06223 0.967471 9.44221 0.589739C9.82219 0.212006 10.3362 -9.37946e-06 10.872 3.11213e-10H13.2C13.7347 3.11213e-10 14.2475 0.212399 14.6255 0.590473C15.0036 0.968546 15.216 1.48132 15.216 2.016V3.324C15.2225 3.40106 15.2508 3.47469 15.2975 3.5363C15.3442 3.59792 15.4075 3.64498 15.48 3.672C15.5534 3.71904 15.6388 3.74405 15.726 3.74405C15.8132 3.74405 15.8986 3.71904 15.972 3.672L16.8 2.712C16.9863 2.52442 17.2078 2.37555 17.4519 2.27396C17.6959 2.17237 17.9576 2.12007 18.222 2.12007C18.4863 2.12007 18.7481 2.17237 18.9921 2.27396C19.2362 2.37555 19.4577 2.52442 19.644 2.712L21.288 4.32C21.4778 4.50631 21.6285 4.72852 21.7315 4.97369C21.8346 5.21885 21.8877 5.48207 21.888 5.748C21.8938 6.01835 21.8435 6.28697 21.7402 6.53689C21.6369 6.78681 21.4829 7.0126 21.288 7.2L20.4 8.088C20.3571 8.1541 20.3343 8.23121 20.3343 8.31C20.3343 8.38879 20.3571 8.46589 20.4 8.532C20.472 8.712 20.592 8.844 20.76 8.844H22.068C22.589 8.86869 23.0805 9.09321 23.4403 9.47089C23.8001 9.84857 24.0006 10.3504 24 10.872V13.2C24 13.7347 23.7876 14.2475 23.4095 14.6255C23.0315 15.0036 22.5187 15.216 21.984 15.216H20.676C20.5989 15.2225 20.5253 15.2508 20.4637 15.2975C20.4021 15.3442 20.355 15.4075 20.328 15.48C20.2851 15.5461 20.2623 15.6232 20.2623 15.702C20.2623 15.7808 20.2851 15.8579 20.328 15.924L21.252 16.848C21.4396 17.0343 21.5884 17.2558 21.69 17.4999C21.7916 17.7439 21.8439 18.0056 21.8439 18.27C21.8439 18.5344 21.7916 18.7961 21.69 19.0401C21.5884 19.2842 21.4396 19.5057 21.252 19.692L19.68 21.288C19.4959 21.4774 19.2758 21.628 19.0326 21.7311C18.7894 21.8341 18.5281 21.8875 18.264 21.888C17.7282 21.881 17.2161 21.6658 16.836 21.288L15.912 20.4C15.8459 20.3571 15.7688 20.3343 15.69 20.3343C15.6112 20.3343 15.5341 20.3571 15.468 20.4C15.288 20.472 15.156 20.592 15.156 20.76V22.068C15.1313 22.589 14.9068 23.0805 14.5291 23.4403C14.1514 23.8001 13.6496 24.0006 13.128 24ZM11.244 21.6H12.756V20.676C12.7611 20.1226 12.9303 19.5832 13.2422 19.1261C13.5541 18.6689 13.9946 18.3146 14.508 18.108C15.0235 17.8827 15.5944 17.816 16.1479 17.9164C16.7015 18.0169 17.2126 18.2799 17.616 18.672L18.264 19.32L19.32 18.264L18.672 17.604C18.2824 17.2067 18.0196 16.7025 17.9171 16.1555C17.8145 15.6086 17.8768 15.0435 18.096 14.532C18.3045 14.0209 18.6596 13.5829 19.1166 13.2732C19.5736 12.9636 20.112 12.7961 20.664 12.792H21.6V11.244H20.676C20.1226 11.2389 19.5832 11.0697 19.1261 10.7578C18.6689 10.4459 18.3146 10.0054 18.108 9.492C17.8827 8.97652 17.816 8.4056 17.9164 7.85206C18.0169 7.29852 18.2799 6.78744 18.672 6.384L19.32 5.736L18.264 4.68L17.604 5.328C17.2005 5.6966 16.7 5.94222 16.1616 6.03594C15.6231 6.12967 15.0691 6.06759 14.5648 5.85703C14.0605 5.64647 13.6268 5.29618 13.3148 4.84742C13.0029 4.39866 12.8256 3.87011 12.804 3.324V2.4H11.244V3.324C11.2389 3.87738 11.0697 4.41679 10.7578 4.87393C10.4459 5.33108 10.0054 5.68539 9.492 5.892C8.97652 6.11733 8.4056 6.18402 7.85206 6.08357C7.29852 5.98312 6.78744 5.72008 6.384 5.328L5.736 4.68L4.68 5.736L5.328 6.396C5.6966 6.79953 5.94222 7.29998 6.03594 7.83842C6.12967 8.37685 6.06759 8.93086 5.85703 9.4352C5.64647 9.93955 5.29618 10.3732 4.84742 10.6852C4.39866 10.9971 3.87011 11.1744 3.324 11.196H2.4V12.708H3.324C3.87738 12.7131 4.41679 12.8823 4.87393 13.1942C5.33108 13.5061 5.68539 13.9466 5.892 14.46C6.11733 14.9755 6.18402 15.5464 6.08357 16.0999C5.98312 16.6535 5.72008 17.1646 5.328 17.568L4.68 18.216L5.736 19.272L6.396 18.624C6.79953 18.2554 7.29998 18.0098 7.83842 17.9161C8.37685 17.8223 8.93086 17.8844 9.4352 18.095C9.93955 18.3055 10.3732 18.6558 10.6852 19.1046C10.9971 19.5533 11.1744 20.0819 11.196 20.628L11.244 21.6Z" fill="#2D2D2D"/>
<path d="M12 16.1998C11.1693 16.1998 10.3573 15.9535 9.66661 15.492C8.97592 15.0305 8.4376 14.3745 8.11971 13.6071C7.80182 12.8396 7.71865 11.9951 7.88071 11.1804C8.04276 10.3657 8.44278 9.61734 9.03016 9.02996C9.61754 8.44258 10.3659 8.04257 11.1806 7.88051C11.9953 7.71845 12.8398 7.80162 13.6073 8.11951C14.3747 8.4374 15.0307 8.97573 15.4922 9.66641C15.9537 10.3571 16.2 11.1691 16.2 11.9998C16.2 13.1137 15.7575 14.182 14.9699 14.9697C14.1822 15.7573 13.1139 16.1998 12 16.1998ZM12 10.1998C11.644 10.1998 11.296 10.3054 11 10.5032C10.704 10.7009 10.4733 10.9821 10.337 11.311C10.2008 11.6399 10.1651 12.0018 10.2346 12.351C10.304 12.7001 10.4755 13.0209 10.7272 13.2726C10.9789 13.5243 11.2997 13.6958 11.6488 13.7652C11.998 13.8347 12.3599 13.799 12.6888 13.6628C13.0177 13.5266 13.2989 13.2958 13.4967 12.9998C13.6944 12.7038 13.8 12.3558 13.8 11.9998C13.8 11.5224 13.6104 11.0646 13.2728 10.727C12.9352 10.3894 12.4774 10.1998 12 10.1998Z" fill="#2D2D2D"/>
</svg>
