<svg width="20" height="20" viewBox="0 0 20 20" fill="none" xmlns="http://www.w3.org/2000/svg">
<path d="M0.95175 9.2045L4.88925 5.267C4.99369 5.16241 5.11772 5.07943 5.25424 5.0228C5.39077 4.96616 5.53711 4.93699 5.68492 4.93693C5.83272 4.93688 5.97909 4.96596 6.11565 5.02249C6.25221 5.07903 6.3763 5.16193 6.48081 5.26644C6.58533 5.37095 6.66822 5.49504 6.72476 5.6316C6.7813 5.76817 6.81037 5.91453 6.81032 6.06234C6.81027 6.21014 6.78109 6.35649 6.72446 6.49301C6.66782 6.62953 6.58484 6.75356 6.48025 6.858L4.46326 8.875L12.25 8.875C12.5484 8.875 12.8345 8.99353 13.0455 9.20451C13.2565 9.41548 13.375 9.70163 13.375 10C13.375 10.2984 13.2565 10.5845 13.0455 10.7955C12.8345 11.0065 12.5484 11.125 12.25 11.125L4.46326 11.125L6.48025 13.142C6.58484 13.2464 6.66782 13.3705 6.72445 13.507C6.78109 13.6435 6.81026 13.7899 6.81031 13.9377C6.81037 14.0855 6.78129 14.2318 6.72475 14.3684C6.66822 14.505 6.58532 14.629 6.48081 14.7336C6.37629 14.8381 6.25221 14.921 6.11565 14.9775C5.97908 15.034 5.83272 15.0631 5.68491 15.0631C5.53711 15.063 5.39076 15.0338 5.25424 14.9772C5.11771 14.9206 4.99369 14.8376 4.88925 14.733L0.951746 10.7955C0.847275 10.691 0.764404 10.567 0.707865 10.4305C0.651325 10.294 0.622225 10.1477 0.622227 10C0.622227 9.85226 0.651329 9.70597 0.707869 9.56948C0.764408 9.43298 0.847279 9.30896 0.95175 9.2045ZM10.75 2.875H17.125L17.125 17.125H10.75C10.4516 17.125 10.1655 17.2435 9.9545 17.4545C9.74353 17.6655 9.625 17.9516 9.625 18.25C9.625 18.5484 9.74353 18.8345 9.9545 19.0455C10.1655 19.2565 10.4516 19.375 10.75 19.375H17.5C17.9971 19.3744 18.4737 19.1767 18.8252 18.8252C19.1767 18.4737 19.3744 17.9971 19.375 17.5L19.375 2.5C19.3744 2.00289 19.1767 1.5263 18.8252 1.17479C18.4737 0.823275 17.9971 0.625553 17.5 0.625H10.75C10.4516 0.625 10.1655 0.743526 9.9545 0.954506C9.74353 1.16548 9.625 1.45163 9.625 1.75C9.625 2.04837 9.74353 2.33452 9.9545 2.54549C10.1655 2.75647 10.4516 2.875 10.75 2.875Z" fill="#2D2D2D"/>
</svg>
