<svg width="26" height="18" viewBox="0 0 26 18" fill="none" xmlns="http://www.w3.org/2000/svg">
<path d="M23.5 1.16699H21.1667C20.5223 1.16699 20 1.68933 20 2.33366V15.167C20 15.8113 20.5223 16.3337 21.1667 16.3337H23.5C24.1443 16.3337 24.6667 15.8113 24.6667 15.167V2.33366C24.6667 1.68933 24.1443 1.16699 23.5 1.16699Z" stroke="#2D2D2D" stroke-width="2" stroke-linejoin="round"/>
<path d="M14.1665 8.16699H11.8332C11.1888 8.16699 10.6665 8.68933 10.6665 9.33366V15.167C10.6665 15.8113 11.1888 16.3337 11.8332 16.3337H14.1665C14.8108 16.3337 15.3332 15.8113 15.3332 15.167V9.33366C15.3332 8.68933 14.8108 8.16699 14.1665 8.16699Z" stroke="#2D2D2D" stroke-width="2" stroke-linejoin="round"/>
<path d="M4.83325 3.5H2.49992C1.85559 3.5 1.33325 4.02233 1.33325 4.66667V15.1667C1.33325 15.811 1.85559 16.3333 2.49992 16.3333H4.83325C5.47758 16.3333 5.99992 15.811 5.99992 15.1667V4.66667C5.99992 4.02233 5.47758 3.5 4.83325 3.5Z" stroke="#2D2D2D" stroke-width="2" stroke-linejoin="round"/>
</svg>
