<svg width="22" height="15" viewBox="0 0 22 15" fill="none" xmlns="http://www.w3.org/2000/svg">
<path d="M20 1H18C17.4477 1 17 1.44772 17 2V13C17 13.5523 17.4477 14 18 14H20C20.5523 14 21 13.5523 21 13V2C21 1.44772 20.5523 1 20 1Z" stroke="#2D2D2D" stroke-width="2" stroke-linejoin="round"/>
<path d="M12 7H10C9.44772 7 9 7.44772 9 8V13C9 13.5523 9.44772 14 10 14H12C12.5523 14 13 13.5523 13 13V8C13 7.44772 12.5523 7 12 7Z" stroke="#2D2D2D" stroke-width="2" stroke-linejoin="round"/>
<path d="M4 3H2C1.44772 3 1 3.44772 1 4V13C1 13.5523 1.44772 14 2 14H4C4.55228 14 5 13.5523 5 13V4C5 3.44772 4.55228 3 4 3Z" stroke="#2D2D2D" stroke-width="2" stroke-linejoin="round"/>
</svg>
