<svg width="14" height="16" viewBox="0 0 14 16" fill="none" xmlns="http://www.w3.org/2000/svg">
<path d="M1 4H2.33333H13" stroke="black" stroke-width="1.5" stroke-linecap="round" stroke-linejoin="round"/>
<path d="M11.6663 3.99967V13.333C11.6663 13.6866 11.5259 14.0258 11.2758 14.2758C11.0258 14.5259 10.6866 14.6663 10.333 14.6663H3.66634C3.31272 14.6663 2.97358 14.5259 2.72353 14.2758C2.47348 14.0258 2.33301 13.6866 2.33301 13.333V3.99967M4.33301 3.99967V2.66634C4.33301 2.31272 4.47348 1.97358 4.72353 1.72353C4.97358 1.47348 5.31272 1.33301 5.66634 1.33301H8.33301C8.68663 1.33301 9.02577 1.47348 9.27582 1.72353C9.52586 1.97358 9.66634 2.31272 9.66634 2.66634V3.99967" stroke="black" stroke-width="1.5" stroke-linecap="round" stroke-linejoin="round"/>
<path d="M5.66699 7.33301V11.333" stroke="black" stroke-width="1.5" stroke-linecap="round" stroke-linejoin="round"/>
<path d="M8.33301 7.33301V11.333" stroke="black" stroke-width="1.5" stroke-linecap="round" stroke-linejoin="round"/>
</svg>
