<svg width="24" height="19" viewBox="0 0 24 19" fill="none" xmlns="http://www.w3.org/2000/svg">
<path d="M22 0H2C0.895833 0 0 0.882076 0 1.96929V16.4107C0 17.4979 0.895833 18.38 2 18.38H22C23.1042 18.38 24 17.4979 24 16.4107V1.96929C24 0.882076 23.1042 0 22 0ZM22 16.4107H2V1.96929H22V16.4107ZM8.66667 9.19C10.1375 9.19 11.3333 8.01253 11.3333 6.56429C11.3333 5.11604 10.1375 3.93857 8.66667 3.93857C7.19583 3.93857 6 5.11604 6 6.56429C6 8.01253 7.19583 9.19 8.66667 9.19ZM4.93333 14.4414H12.4C12.9167 14.4414 13.3333 14.0886 13.3333 13.6537V12.866C13.3333 11.5613 12.0792 10.5029 10.5333 10.5029C10.0833 10.5029 9.75417 10.8311 8.66667 10.8311C7.54583 10.8311 7.275 10.5029 6.8 10.5029C5.25417 10.5029 4 11.5613 4 12.866V13.6537C4 14.0886 4.41667 14.4414 4.93333 14.4414ZM15 11.8157H19.6667C19.85 11.8157 20 11.668 20 11.4875V10.8311C20 10.6506 19.85 10.5029 19.6667 10.5029H15C14.8167 10.5029 14.6667 10.6506 14.6667 10.8311V11.4875C14.6667 11.668 14.8167 11.8157 15 11.8157ZM15 9.19H19.6667C19.85 9.19 20 9.0423 20 8.86178V8.20536C20 8.02484 19.85 7.87714 19.6667 7.87714H15C14.8167 7.87714 14.6667 8.02484 14.6667 8.20536V8.86178C14.6667 9.0423 14.8167 9.19 15 9.19ZM15 6.56429H19.6667C19.85 6.56429 20 6.41659 20 6.23607V5.57964C20 5.39912 19.85 5.25143 19.6667 5.25143H15C14.8167 5.25143 14.6667 5.39912 14.6667 5.57964V6.23607C14.6667 6.41659 14.8167 6.56429 15 6.56429Z" fill="#2D2D2D"/>
</svg>
