<svg width="28" height="22" viewBox="0 0 28 22" fill="none" xmlns="http://www.w3.org/2000/svg">
<path d="M25.6667 0.5H2.33333C1.04514 0.5 0 1.52909 0 2.7975V19.6458C0 20.9142 1.04514 21.9433 2.33333 21.9433H25.6667C26.9549 21.9433 28 20.9142 28 19.6458V2.7975C28 1.52909 26.9549 0.5 25.6667 0.5ZM25.6667 19.6458H2.33333V2.7975H25.6667V19.6458ZM10.1111 11.2217C11.8271 11.2217 13.2222 9.84795 13.2222 8.15833C13.2222 6.46871 11.8271 5.095 10.1111 5.095C8.39514 5.095 7 6.46871 7 8.15833C7 9.84795 8.39514 11.2217 10.1111 11.2217ZM5.75556 17.3483H14.4667C15.0694 17.3483 15.5556 16.9367 15.5556 16.4293V15.5103C15.5556 13.9882 14.0924 12.7533 12.2889 12.7533C11.7639 12.7533 11.3799 13.1362 10.1111 13.1362C8.80347 13.1362 8.4875 12.7533 7.93333 12.7533C6.12986 12.7533 4.66667 13.9882 4.66667 15.5103V16.4293C4.66667 16.9367 5.15278 17.3483 5.75556 17.3483ZM17.5 14.285H22.9444C23.1583 14.285 23.3333 14.1127 23.3333 13.9021V13.1362C23.3333 12.9256 23.1583 12.7533 22.9444 12.7533H17.5C17.2861 12.7533 17.1111 12.9256 17.1111 13.1362V13.9021C17.1111 14.1127 17.2861 14.285 17.5 14.285ZM17.5 11.2217H22.9444C23.1583 11.2217 23.3333 11.0494 23.3333 10.8387V10.0729C23.3333 9.86231 23.1583 9.69 22.9444 9.69H17.5C17.2861 9.69 17.1111 9.86231 17.1111 10.0729V10.8387C17.1111 11.0494 17.2861 11.2217 17.5 11.2217ZM17.5 8.15833H22.9444C23.1583 8.15833 23.3333 7.98602 23.3333 7.77542V7.00958C23.3333 6.79898 23.1583 6.62667 22.9444 6.62667H17.5C17.2861 6.62667 17.1111 6.79898 17.1111 7.00958V7.77542C17.1111 7.98602 17.2861 8.15833 17.5 8.15833Z" fill="#2D2D2D"/>
</svg>
