<svg width="12" height="8" viewBox="0 0 12 8" fill="none" xmlns="http://www.w3.org/2000/svg">
<path d="M10.935 3.75C10.615 3.195 8.85503 0.409997 5.86503 0.499997C3.10003 0.569997 1.50003 3 1.06503 3.75C1.02115 3.82601 0.998047 3.91223 0.998047 4C0.998047 4.08777 1.02115 4.17399 1.06503 4.25C1.38003 4.795 3.06503 7.5 6.01003 7.5H6.13503C8.90003 7.43 10.505 5 10.935 4.25C10.9789 4.17399 11.002 4.08777 11.002 4C11.002 3.91223 10.9789 3.82601 10.935 3.75ZM6.11003 6.5C3.95503 6.55 2.55003 4.705 2.11003 4C2.61003 3.195 3.91503 1.55 5.91503 1.5C8.06003 1.445 9.47003 3.295 9.91503 4C9.40003 4.805 8.11003 6.45 6.11003 6.5Z" fill="black" fill-opacity="0.6"/>
<path d="M6 2.25C5.65388 2.25 5.31554 2.35264 5.02775 2.54493C4.73997 2.73722 4.51566 3.01053 4.38321 3.3303C4.25076 3.65007 4.2161 4.00194 4.28363 4.34141C4.35115 4.68087 4.51782 4.99269 4.76256 5.23744C5.00731 5.48218 5.31913 5.64885 5.65859 5.71637C5.99806 5.7839 6.34993 5.74924 6.6697 5.61679C6.98947 5.48434 7.26278 5.26003 7.45507 4.97225C7.64737 4.68446 7.75 4.34612 7.75 4C7.75 3.53587 7.56563 3.09075 7.23744 2.76256C6.90925 2.43437 6.46413 2.25 6 2.25ZM6 4.75C5.85166 4.75 5.70666 4.70601 5.58332 4.6236C5.45999 4.54119 5.36386 4.42406 5.30709 4.28701C5.25033 4.14997 5.23547 3.99917 5.26441 3.85368C5.29335 3.7082 5.36478 3.57456 5.46967 3.46967C5.57456 3.36478 5.7082 3.29335 5.85368 3.26441C5.99917 3.23547 6.14997 3.25032 6.28701 3.30709C6.42406 3.36386 6.54119 3.45999 6.6236 3.58332C6.70601 3.70666 6.75 3.85166 6.75 4C6.75 4.19891 6.67098 4.38968 6.53033 4.53033C6.38968 4.67098 6.19891 4.75 6 4.75Z" fill="black" fill-opacity="0.6"/>
</svg>
